<svg id="svg" xmlns="http://www.w3.org/2000/svg" viewBox="0 0 383.78 95.45"><defs><style>.cls-1{fill:#fff;}.cls-2{fill:#83c441;}.cls-3{fill:#43662c;}.cls-4{fill:lime;}</style></defs><title>MLP_logo_for_dark2</title><g id="svgg"><path id="path0" d="M48.54,98.11a1.14,1.14,0,0,0,.58,0c.17,0,0-.07-.29-.07s-.45,0-.29.07" transform="translate(-5.04 -6.69)"/><path id="path1" class="cls-1" d="M316.79,30.93c-4,.72-6.57,3.88-6,7.24,1,5.54,9.77,7.5,14.2,3.16,5-4.91-.45-11.81-8.23-10.4m55.88,15.58c-1.7.25-3.37.47-3.72.48-.77,0-.8.08-1.37,2.84-.23,1.15-.75,3.62-1.16,5.5-.8,3.73-2.22,10.39-2.33,10.92l-.84,4.25c-.05.23-.14.6-.2.83l-.13.5s-.08.39-.16.75-.17.74-.2.84-.2.91-.39,1.83l-.34,1.67-1.65,1.61c-4.58,4.46-10.57,5.7-12.5,2.58-2.38-3.86,1.91-18.37,5.94-20,2.42-1,3.43,1,2.24,4.57-.54,1.58-.54,1.57.89,2,4.93,1.28,5.95-7.74,1.08-9.6-3-1.16-7.74-.4-11,1.76-4.51,3-8.17,10.66-8.41,17.6-.07,1.86-.53,2.62-2.41,4a3.41,3.41,0,0,1-.74.43,3.29,3.29,0,0,0-.5.17,4.39,4.39,0,0,1-2.55-.33c-.93-.61-.94-1.64-.06-5.82s1-4.93,1.11-5.34c0-.19.09-.49.13-.67s.08-.39.09-.46.09-.36.18-.66a10.3,10.3,0,0,0,.25-1.13,8.16,8.16,0,0,1,.25-1.08c.08-.28.39-1.66.67-3.08.68-3.45.48-3.2,2.53-3.16l1.7,0,.2-1c.35-1.67.46-1.56-1.51-1.56H336l.16-.79c.09-.44.53-2.46,1-4.5s.82-3.75.82-3.81a2.64,2.64,0,0,0-1,0c-1.36.14-7.7,1-7.75,1S327.5,57,327.5,57.33s-.14.33-1,.37l-1,0-.21,1c-.32,1.56-.35,1.51.7,1.44.5,0,.91,0,.91.09s-.51,2.57-1.92,9c-.41,1.88-.9,4.21-1.09,5.17s-.37,1.82-.39,1.92c-.62,2.93-3.15,5.6-5.3,5.57s-2.82-1.14-2.2-4c.14-.67.36-1.78.49-2.47s.26-1.44.31-1.67.18-.83.28-1.33.33-1.55.52-2.33.37-1.57.4-1.75l.16-.75c.05-.23.17-.83.26-1.34s.5-2.38.89-4.16.77-3.54.83-3.88l.11-.62h-4.25a34.44,34.44,0,0,0-4.33.14c-.08.12-1.51,6.67-1.69,7.77-.05.28-.13.63-.17.78A12.91,12.91,0,0,0,309.4,68c-.06.32-.47,2.22-.91,4.23-1.33,5.9-1.59,8-1.29,10.19.57,4,3.46,5.9,8,5.18a9.39,9.39,0,0,0,4.06-1.45,18,18,0,0,0,3.53-3.33c0-.4.31.06.41.63a5.5,5.5,0,0,0,3.69,4A11.22,11.22,0,0,0,338.49,83l.41-.53.36.8c2.85,6.32,13.59,6,20.36-.71a9.91,9.91,0,0,1,1.21-1.09,7.46,7.46,0,0,1-.16.77c-.08.37-.19.85-.23,1.08s-.23,1.18-.43,2.11-.34,1.78-.34,1.88,1.28.18,4.24.18h4.24l.17-.62c.09-.35.43-1.87.74-3.38l1.27-6,1.27-6c1.31-6.16,2.73-8.5,5.16-8.5s2.7,2.53.76,10.62c-1.76,7.39-1.7,10.12.25,12.35,3.17,3.62,9.53,1.83,10.84-3,.32-1.2.3-1.28-.2-1.08-1.31.5-3.12,0-3.62-1s-.47-1.62,1-7.75c2.13-9,2.11-11.63-.11-13.78-2.66-2.58-7.95-2.3-10.94.59-.39.37-.71.63-.71.57,0-.23,1-5.28,1.43-7,.24-1,.64-2.89.9-4.17s.53-2.54.59-2.79c.15-.59-.08-.59-4.25,0m-88.56,9.78-.2,1.13c-.08.48-1.13,5.33-2.67,12.41-.41,1.88-.85,4-1,4.75s-.32,1.71-.41,2.17-.52,2.52-.94,4.58-.84,3.86-.92,4-.12.3-.08.34a6.5,6.5,0,0,1-.26,1.39c-.18.74-.37,1.56-.41,1.84a5.75,5.75,0,0,1-.17.77c-.09.29-.19.75-.34,1.48-.22,1.12-1,4.57-1.55,7.36-.78,3.56-.79,3.69-.39,3.57.24-.08,3.72-.88,5.1-1.18.74-.16,3.47-.89,3.53-1a4.14,4.14,0,0,0,.16-.78c.06-.4.48-2.39.94-4.42s.87-3.87.91-4.1A30.19,30.19,0,0,1,286.54,86a2.86,2.86,0,0,1,.76.58c1,.94,1.68,1.09,4.76,1,6.2-.11,10.14-3.59,12.68-11.19a31.42,31.42,0,0,0,1.32-9.34c.05-6.51-2.29-9.59-7.3-9.58a10.23,10.23,0,0,0-6.11,1.9l-.6.41.39-1.78c.21-1,.39-1.91.39-2.07s-.31-.29-4.31-.29h-4.31l-.1.62M112.33,57.6c-1.75.34-4.53,1.86-5,2.75-.31.58-.34.27-.08-1,.41-1.94.87-1.75-4-1.69l-4.29,0-.22,1.08c-.37,1.86-2.19,10.43-3,13.92-.4,1.83-.78,3.6-.83,3.92-.18,1-.77,3.85-1.11,5.33-.31,1.3-1.14,5.3-1.14,5.44a77,77,0,0,0,8.58-.11,19,19,0,0,0,.5-2c3-14.5,3.72-17.59,4.39-18.94,2.38-4.84,6.41-4.48,5.46.48-.42,2.25-1.06,5.37-1.66,8.09-.32,1.46-.63,3-.68,3.41a16.87,16.87,0,0,1-.35,1.75c-.14.55-.29,1.19-.33,1.42s-.13.6-.19.83a2.24,2.24,0,0,0-.09.53,3.32,3.32,0,0,1-.15.66c-.09.31-.2.71-.23.9s-.11.52-.16.75a11.29,11.29,0,0,0-.2,1.16c0,.42-.11.83-.12.92a58.67,58.67,0,0,0,8.42.12,14.41,14.41,0,0,0,.57-2.29c.23-1.19.71-3.48,1.07-5.08s.69-3.31.75-3.79a11,11,0,0,1,.27-1.42,9.59,9.59,0,0,0,.24-1c0-.23.14-.68.22-1,.18-.66.49-2,.6-2.66,0-.23.13-.63.18-.88a3.1,3.1,0,0,0,.08-.5c-.15-.36,1.33-3.4,2.19-4.48s2.65-1.66,3.53-1c1.59,1.25,1.47,2.68-1.24,14.19a25.14,25.14,0,0,0-.41,3.79,5.82,5.82,0,0,1,.15.93,6.39,6.39,0,0,0,7.52,5.5l1.5-.2c1.71-.21,4.28-2,5.59-4,.44-.65.66-.77.66-.35,0,2.33,2.65,4.29,5.81,4.31s4.63-.45,6.73-2.38c.54-.49.54-.49.19,1.14l-.27,1.25-.85.31-1,.35c-.1,0-.62.25-1.17.5l-1.58.72c-5.4,2.42-6.88,9-2.61,11.6a10,10,0,0,0,10.37-.81c.38-.31.74-.53.79-.47s.16,0,.22-.21a9.59,9.59,0,0,1,.93-1.34,13.59,13.59,0,0,0,1.95-3.77l.2-.67c.25-.78,1-4.26,1.08-5s.38-1,1.22-1.18a13.79,13.79,0,0,0,5-2.86c1.4-1.27,1.49-1.5,1.48-3.81a25.77,25.77,0,0,1,.1-2.66c.08-.52,0-.38-.46.68a10.38,10.38,0,0,1-5,5.59c-1.73.85-1.74,1.61.09-6.76.7-3.22.89-4.13,1.25-6.08.12-.69.52-2.57.89-4.17.94-4.14,2-9.22,2-9.55s-8.17-.44-8.46-.07c-.08.11-.51,1.85-.94,3.87s-1.17,5.43-1.63,7.58c-1.75,8.19-1.78,8.32-2.43,9.61-1.49,3-4.29,4.06-5.21,2-.49-1.06-.42-1.91.42-5.71l.16-.75c0-.23.16-.75.25-1.17s.32-1.46.5-2.33c.45-2.2,2.26-10.69,2.56-12a4.17,4.17,0,0,0,.17-1.21c-.09-.13-8.56-.18-8.56,0s-.22,1.08-.49,2.3-.68,3.15-.91,4.29-.54,2.6-.68,3.24-.33,1.47-.41,1.84-.42,2-.76,3.66c-1.43,7-3.73,10-6.78,8.7-1.05-.43-1.51-2.87-.93-4.86.05-.19.15-.56.21-.84s.47-2,.91-3.75c1.84-7.46,1.79-10.89-.17-12.85-3.34-3.34-9.59-2.24-12.85,2.25-.3.42-.49.56-.54.42l-.35-1.1c-.83-2.62-4-4.1-7.42-3.45M296.4,62.22c3.07,2,1.23,14.23-2.8,18.59-1.66,1.79-4.39,2.31-5.62,1.08l-.53-.53.7-3.31c.38-1.81.77-3.67.85-4.13.26-1.35,1.18-5.65,1.24-5.75a3.36,3.36,0,0,0,.16-.67c.49-3,1.08-4.06,2.93-5.19a3.25,3.25,0,0,1,3.07-.09M151.1,91c0,.16-.21.85-.36,1.54a6,6,0,0,1-.45,1.46c-.09.11-.11.21,0,.21s0,.16-.1.37a3.06,3.06,0,0,0-.24.56c-.25,1.46-2.84,3.15-3.41,2.22a.28.28,0,0,0-.26-.15c-.33.07-.79-.84-.79-1.56,0-1.52,1.48-3.09,3.9-4.17.59-.26,1.19-.54,1.33-.62.4-.21.53-.18.43.14" transform="translate(-5.04 -6.69)"/><path id="path2" class="cls-2" d="M234.08,6.79a5.06,5.06,0,0,0,1.34.36c2,.36,8.6,1.68,9.66,1.93.55.13,1.23.27,1.5.32,1.51.25,2.46.43,3.5.68l4.75,1.09c1,.2,4.49,1,7.5,1.78,1,.23,1.83.44,1.92.45l.5.15.75.19c.23,0,.87.2,1.42.35l2,.5c1.69.4,8.93,2.58,10.08,3l.33.12a.91.91,0,0,1,.25.12,12.3,12.3,0,0,0,1.34.46c1.26.39,6.58,2.36,7.66,2.85l2.77,1.13c2.41,1,6.54,2.8,9.29,4.13,1.74.85,2.9,1.19,1.42.43l-1.73-.93c-1.25-.69-8.72-4.42-9.83-4.9l-2.85-1.26c-1.16-.52-2.17-.94-2.25-.94a3,3,0,0,1-.74-.31,9.8,9.8,0,0,0-1.24-.52,3.31,3.31,0,0,1-.88-.38c-.11-.09-.21-.11-.21-.05s-.21,0-.48-.14c-.71-.37-7-2.53-9.43-3.24-4.28-1.25-16-3.93-19.42-4.45l-1.08-.18c-2.63-.55-8.45-1.5-14.75-2.41l-2.75-.42c-.32-.06-.44,0-.34.06m-101,1.45c-5.06,1.76-5.56,1.94-8.41,3.14a171.09,171.09,0,0,0-19.09,9.36A163.31,163.31,0,0,0,88,32.51,136.27,136.27,0,0,0,68.83,50.67l-1.57,1.84c-.88,1-4,5.07-4.92,6.41-.31.46-.78,1.13-1,1.5a123.41,123.41,0,0,0-10.13,17.9c-.19.5-.5,1.21-.67,1.59-.44,1-1.71,4.23-2.79,7.17-1.78,4.86-3.64,8.18-4.88,8.74l-.63.28.65.54c1.37,1.15,1.9,1.28,5.23,1.28,7.15,0,8.29-1.08,12.77-12,.64-1.56,1.36-3.25,1.59-3.75s.69-1.56,1-2.34c1-2.34,4.67-9.94,5.72-11.75.22-.36.51-.89.66-1.16.74-1.38,2.25-3.91,4.06-6.75.85-1.35,2-3,4.84-7.07a6.83,6.83,0,0,1,.59-.77,6.63,6.63,0,0,0,.6-.75c.75-1,3.23-4.07,4.53-5.57,2.36-2.75,3.36-3.81,6.63-7.09a144.89,144.89,0,0,1,18.67-15.86c2.7-2,10.1-6.73,13.25-8.55l1.17-.68c1.33-.84,9.79-5.34,11.23-6,.81-.36,1.62-.91,1.23-.83l-3.55,1.23m45.58,38.22-4.1.6-.63,2.84c-.35,1.57-.85,3.86-1.11,5.1s-.6,2.74-.74,3.35c-.3,1.27-.28,1.18-.74,3.57-.39,1.95-1.84,8.7-2.76,12.83a37.51,37.51,0,0,0-.67,3.75,23.49,23.49,0,0,0,0,4.67c.07,0,.13.11.13.24a5.17,5.17,0,0,0,.44,1.17c2.22,4.7,10.1,4.26,14.42-.81l.91-1.06.49.94a7.76,7.76,0,0,0,5.63,3.93,12,12,0,0,0,11.46-3.47,22.37,22.37,0,0,0,5.59-13l.11-1.25h.54a10.26,10.26,0,0,0,1.93-.4c1.68-.49,1.56-.69.9,1.49-1.53,5.06-1.58,9.77-.13,12.75,2.4,5,10.84,5.63,17.39,1.38a18.39,18.39,0,0,0,3.14-2.74L232.1,81l.45,1.45c1.47,4.72,6.78,6.76,11.53,4.42a12.1,12.1,0,0,0,3.86-3.26c.78-1,.74-1,1.13.23a5.34,5.34,0,0,0,4.86,3.58c1.27.09,4.18-.23,4.34-.49a.48.48,0,0,1,.35-.14c.55,0,2.56-1.39,3.73-2.58s1.48-1.37,1.48-.65a4.85,4.85,0,0,0,2.22,3.13c3,2,8.66,1.1,11.53-1.89.26-.27.52-.46.58-.42a53.64,53.64,0,0,0,1.44-6.88c-.05-.05-.21.19-.35.52-1.94,4.64-7.77,5.25-7,.74.09-.49.65-3.17,1.25-6s1.36-6.36,1.69-7.91.88-4.19,1.25-5.84c.61-2.8,1.26-5.86,2.31-10.95a12.8,12.8,0,0,0,.35-2.21c-.05-.05-2.07.19-4.5.53l-4.41.61-.54,2.51-1.05,4.85c-.28,1.28-.51,2.5-.51,2.71a.65.65,0,0,1-.15.47.66.66,0,0,0-.15.48c0,.36-.29,1.77-2,9.59-.37,1.69-.71,3.27-.75,3.5s-.22,1.09-.41,1.91-.37,1.73-.42,2c-.79,4.35-2.59,6.75-5,6.75s-2.66-.86-1.58-5.92c.37-1.74.75-3.61.85-4.16s.4-2,.66-3.17.72-3.21,1-4.5.7-3.16.94-4.16.42-1.93.42-2-1-.21-4.41-.21h-4.4l-.19.95c-.1.53-.2,1-.22,1.09s-.29-.23-.61-.66c-2.09-2.78-8-2.14-12.23,1.32-1.38,1.14-2.94,2.87-2.94,3.25,0,.12-.06.21-.13.21s-.2.14-.29.31c-2.68,5-3.67,8-4,11.69-.16,1.81-.21,1.92-1.5,3.14-4.12,3.91-10,5-11.87,2.15-2.08-3.09.88-15.4,4.56-19,3.06-3,5.17-.26,3.22,4.16-.38.86-.19,1.07,1.28,1.4,4.32,1,5.95-6.73,2-9.28-4.62-3-12.48-.14-16.41,5.9l-.89,1.36-1.3.41c-3.13,1-4,.93-4-.31,0-6.58-4.8-9.81-11.62-7.84-5.55,1.6-10.65,8.14-11.7,15-.09.55-.23,1.42-.32,1.93s-.21,1.61-.27,2.42a4.63,4.63,0,0,1-4.51,4.56c-2.38,0-2.66-.9-1.67-5.36.32-1.4.61-2.74.65-3,.5-2.69,1.1-5.53,2.12-10.08.18-.83.37-1.73.41-2s.22-1.1.4-1.83a6.07,6.07,0,0,0,.25-1.45c0-.06,0-.16.09-.22a.5.5,0,0,0,.15-.38c0-.34.59-3.33,1.62-8,.41-1.86.74-3.45.74-3.54s-.17-.21-4.84.46m22.06,14.93a2.29,2.29,0,0,1,1.27,1.9l.15.79-.8.75c-1.51,1.41-1.49,4.39,0,5,.55.22.55.31.14,2.15-1.6,7.15-4.45,10.9-7.52,9.88-2.13-.7-2.28-5.81-.37-11.88.24-.78.45-1.45.46-1.5a16.89,16.89,0,0,1,1.24-2.81,7.59,7.59,0,0,0,.51-1,11.85,11.85,0,0,1,.91-1.28c1.46-1.92,2.73-2.58,4-2.06m50.15.82a2.25,2.25,0,0,1,.63,1c0,.34-2.6,12.52-3,14.16-1,3.93-5.53,6-6.86,3.11-.5-1.06-.53-4.94-.06-7.45,1.58-8.49,6.33-14,9.31-10.87M144.79,87.79a6.49,6.49,0,0,0,1.08,0c.3,0,.06-.07-.54-.07s-.84,0-.54.07m146.08,0a8.69,8.69,0,0,0,1.25,0c.35,0,.07-.07-.62-.07s-1,0-.63.07m37.84,0a4.61,4.61,0,0,0,.91,0c.26,0,.05-.07-.45-.07s-.71,0-.46.07m19,0a4.61,4.61,0,0,0,.91,0c.26,0,.05-.07-.45-.07s-.71,0-.46.07" transform="translate(-5.04 -6.69)"/><path id="path3" class="cls-3" d="M5.61,39.3c.38.34,1.19,1,1.8,1.53a108.93,108.93,0,0,1,12,11.83c1.19,1.32,5.21,6.29,6,7.44,2.78,4,3.54,5.07,3.89,5.67L31,68.47c4.7,7.79,9,18.64,10,25C41.07,94.25,42,96,42.3,96c1.41,0,3.3-3.2,5.68-9.64.65-1.77,1.26-3.36,1.35-3.52.23-.44-1-2.88-2.9-5.84-1.62-2.49-3.4-5.18-3.77-5.67-.24-.32-1-1.33-1.67-2.25-5.32-7.19-15.07-17.26-19.76-20.41-.41-.28-2.3-1.7-2.8-2.12-.18-.15-1.34-.94-2.59-1.77L13.16,43a80.36,80.36,0,0,0-8.1-4.32c-.08,0,.17.28.55.63" transform="translate(-5.04 -6.69)"/><path id="path4" class="cls-4" d="M218.05,77.75c0,.55,0,.75.07.46a4.18,4.18,0,0,0,0-1c0-.25-.07,0-.07.54" transform="translate(-5.04 -6.69)"/></g></svg>